0
SECTION
2
HEADER
9
$INSUNITS
70
4
9
$ACADVER
1
AC1014
9
$HANDSEED
5
FFFF
0
ENDSEC
0
SECTION
2
TABLES
0
TABLE
2
VPORT
5
8
100
AcDbSymbolTable
0
ENDTAB
0
TABLE
2
LTYPE
5
5
100
AcDbSymbolTable
0
LTYPE
5
14
100
AcDbSymbolTableRecord
100
AcDbLinetypeTableRecord
2
BYBLOCK
70
0
0
LTYPE
5
15
100
AcDbSymbolTableRecord
100
AcDbLinetypeTableRecord
2
BYLAYER
70
0
0
ENDTAB
0
TABLE
2
LAYER
5
2
100
AcDbSymbolTable
70
2
0
LAYER
5
50
100
AcDbSymbolTableRecord
100
AcDbLayerTableRecord
2
0
70
0
6
CONTINUOUS
0
ENDTAB
0
TABLE
2
STYLE
5
3
100
AcDbSymbolTable
70
1
0
STYLE
5
11
100
AcDbSymbolTableRecord
100
AcDbTextStyleTableRecord
2
STANDARD
70
0
0
ENDTAB
0
TABLE
2
VIEW
5
6
100
AcDbSymbolTable
70
0
0
ENDTAB
0
TABLE
2
UCS
5
7
100
AcDbSymbolTable
70
0
0
ENDTAB
0
TABLE
2
APPID
5
9
100
AcDbSymbolTable
70
2
0
APPID
5
12
100
AcDbSymbolTableRecord
100
AcDbRegAppTableRecord
2
ACAD
70
0
0
ENDTAB
0
TABLE
2
DIMSTYLE
5
A
100
AcDbSymbolTable
70
1
0
ENDTAB
0
TABLE
2
BLOCK_RECORD
5
1
100
AcDbSymbolTable
70
1
0
BLOCK_RECORD
5
1F
100
AcDbSymbolTableRecord
100
AcDbBlockTableRecord
2
*MODEL_SPACE
0
BLOCK_RECORD
5
1B
100
AcDbSymbolTableRecord
100
AcDbBlockTableRecord
2
*PAPER_SPACE
0
ENDTAB
0
ENDSEC
0
SECTION
2
BLOCKS
0
BLOCK
5
20
100
AcDbEntity
100
AcDbBlockBegin
2
*MODEL_SPACE
0
ENDBLK
5
21
100
AcDbEntity
100
AcDbBlockEnd
0
BLOCK
5
1C
100
AcDbEntity
100
AcDbBlockBegin
2
*PAPER_SPACE
0
ENDBLK
5
1D
100
AcDbEntity
100
AcDbBlockEnd
0
ENDSEC
0
SECTION
2
ENTITIES
0
LINE
5
100
100
AcDbEntity
8
0
100
AcDbLine
10
-24.000000000000004
20
140
30
0
11
24.000000000000004
21
139.99999999999997
31
0
0
LINE
5
101
100
AcDbEntity
8
0
100
AcDbLine
10
24.000000000000004
20
-140
30
0
11
-24.000000000000004
21
-140
31
0
0
LINE
5
102
100
AcDbEntity
8
0
100
AcDbLine
10
-24.000000000000004
20
-140
30
0
11
-24.000000000000004
21
140
31
0
0
CIRCLE
5
103
100
AcDbEntity
8
0
100
AcDbCircle
10
-24.000000000000004
20
140
30
0
40
0.5
210
0
220
0
230
1
0
CIRCLE
5
104
100
AcDbEntity
8
0
100
AcDbCircle
10
24.000000000000004
20
139.99999999999997
30
0
40
0.5
210
0
220
0
230
1
0
CIRCLE
5
105
100
AcDbEntity
8
0
100
AcDbCircle
10
-24.000000000000004
20
-140
30
0
40
0.5
210
0
220
0
230
1
0
CIRCLE
5
106
100
AcDbEntity
8
0
100
AcDbCircle
10
24.000000000000004
20
-140
30
0
40
0.5
210
0
220
0
230
1
0
CIRCLE
5
107
100
AcDbEntity
8
0
100
AcDbCircle
10
0
20
0
30
0
40
60
210
0
220
0
230
1
0
LWPOLYLINE
5
108
100
AcDbEntity
8
0
100
AcDbPolyline
90
4
70
1
43
0.0
10
-45
20
-70
10
45
20
-70
10
45
20
-120
10
-45
20
-120
0
CIRCLE
5
109
100
AcDbEntity
8
0
100
AcDbCircle
10
-45
20
-70
30
0
40
0.5
210
0
220
0
230
1
0
CIRCLE
5
110
100
AcDbEntity
8
0
100
AcDbCircle
10
45
20
-70
30
0
40
0.5
210
0
220
0
230
1
0
CIRCLE
5
111
100
AcDbEntity
8
0
100
AcDbCircle
10
45
20
-120
30
0
40
0.5
210
0
220
0
230
1
0
CIRCLE
5
112
100
AcDbEntity
8
0
100
AcDbCircle
10
-45
20
-120
30
0
40
0.5
210
0
220
0
230
1
0
CIRCLE
5
113
100
AcDbEntity
8
0
100
AcDbCircle
10
0
20
0
30
0
40
49.500000000000014
210
0
220
0
230
1
0
CIRCLE
5
114
100
AcDbEntity
8
0
100
AcDbCircle
10
0
20
49.500000000000014
30
0
40
0.50000000000000178
210
0
220
0
230
1
0
CIRCLE
5
115
100
AcDbEntity
8
0
100
AcDbCircle
10
-35.001785668734115
20
35.001785668734108
30
0
40
0.50000000000000178
210
0
220
0
230
1
0
CIRCLE
5
116
100
AcDbEntity
8
0
100
AcDbCircle
10
-49.500000000000021
20
-1.0991207943789053e-14
30
0
40
0.50000000000000178
210
0
220
0
230
1
0
CIRCLE
5
117
100
AcDbEntity
8
0
100
AcDbCircle
10
-35.001785668734115
20
-35.001785668734108
30
0
40
0.50000000000000178
210
0
220
0
230
1
0
CIRCLE
5
118
100
AcDbEntity
8
0
100
AcDbCircle
10
-6.0620016557793993e-15
20
-49.500000000000014
30
0
40
0.50000000000000178
210
0
220
0
230
1
0
CIRCLE
5
119
100
AcDbEntity
8
0
100
AcDbCircle
10
35.001785668734108
20
-35.001785668734108
30
0
40
0.50000000000000178
210
0
220
0
230
1
0
CIRCLE
5
120
100
AcDbEntity
8
0
100
AcDbCircle
10
49.500000000000014
20
-1.0991207943789053e-14
30
0
40
0.50000000000000178
210
0
220
0
230
1
0
CIRCLE
5
121
100
AcDbEntity
8
0
100
AcDbCircle
10
35.001785668734115
20
35.001785668734101
30
0
40
0.50000000000000178
210
0
220
0
230
1
0
LWPOLYLINE
5
122
100
AcDbEntity
8
0
100
AcDbPolyline
90
8
70
1
43
0.0
10
-30
20
160
10
29.999999999999996
20
160
42
-0.41421356237309503
10
80
20
110
10
79.999999999999986
20
-110
42
-0.41421356237309537
10
30.000000000000004
20
-160
10
-29.999999999999996
20
-160
42
-0.41421356237309503
10
-80
20
-110
10
-80
20
110
42
-0.41421356237309503
0
LWPOLYLINE
5
123
100
AcDbEntity
8
0
100
AcDbPolyline
90
4
70
1
43
0.0
10
-146.74919012785406
20
104.86661483447787
10
-98.749190127854149
20
104.86661483447787
10
-98.749190127854149
20
24.866614834477865
10
-146.74919012785406
20
24.866614834477865
0
LWPOLYLINE
5
124
100
AcDbEntity
8
0
100
AcDbPolyline
90
8
70
1
43
0.0
10
-93.749190127854149
20
14.866614834477865
10
-151.74919012785406
20
14.866614834477865
42
-0.41421356237309503
10
-156.74919012785406
20
19.866614834477865
10
-156.74919012785404
20
109.86661483447787
42
-0.41421356237310231
10
-151.74919012785406
20
114.86661483447787
10
-93.749190127854149
20
114.86661483447784
42
-0.41421356237310231
10
-88.749190127854192
20
109.86661483447787
10
-88.749190127854149
20
19.866614834477865
42
-0.41421356237309503
0
CIRCLE
5
125
100
AcDbEntity
8
0
100
AcDbCircle
10
-146.74919012785406
20
104.86661483447787
30
0
40
0.99999999999999134
210
0
220
0
230
1
0
CIRCLE
5
126
100
AcDbEntity
8
0
100
AcDbCircle
10
-98.749190127854149
20
104.86661483447787
30
0
40
1.0000000000000009
210
0
220
0
230
1
0
CIRCLE
5
127
100
AcDbEntity
8
0
100
AcDbCircle
10
-98.749190127854149
20
24.866614834477865
30
0
40
1.0000000000000142
210
0
220
0
230
1
0
CIRCLE
5
128
100
AcDbEntity
8
0
100
AcDbCircle
10
-146.74919012785406
20
24.866614834477865
30
0
40
0.99999999999999545
210
0
220
0
230
1
0
CIRCLE
5
129
100
AcDbEntity
8
0
100
AcDbCircle
10
-146.74919012785406
20
64.866614834477872
30
0
40
0.49999999999998851
210
0
220
0
230
1
0
CIRCLE
5
130
100
AcDbEntity
8
0
100
AcDbCircle
10
-98.749190127854149
20
64.866614834477872
30
0
40
0.5
210
0
220
0
230
1
0
LWPOLYLINE
5
131
100
AcDbEntity
8
0
100
AcDbPolyline
90
8
70
1
43
0.0
10
-88.749190127854192
20
-20.133385165522135
42
0.41421356237310231
10
-93.749190127854149
20
-15.133385165522135
10
-151.74919012785406
20
-15.133385165522135
42
0.41421356237310231
10
-156.74919012785406
20
-20.133385165522135
10
-156.74919012785406
20
-110.13338516552213
42
0.41421356237309503
10
-151.74919012785406
20
-115.13338516552213
10
-93.749190127854149
20
-115.13338516552213
42
0.41421356237309503
10
-88.749190127854149
20
-110.13338516552213
0
CIRCLE
5
132
100
AcDbEntity
8
0
100
AcDbCircle
10
-146.74919012785406
20
-65.133385165522128
30
0
40
0.49999999999998851
210
0
220
0
230
1
0
LWPOLYLINE
5
133
100
AcDbEntity
8
0
100
AcDbPolyline
90
4
70
1
43
0.0
10
-146.74919012785406
20
-25.133385165522135
10
-98.749190127854149
20
-25.133385165522135
10
-98.749190127854149
20
-105.13338516552213
10
-146.74919012785406
20
-105.13338516552213
0
CIRCLE
5
134
100
AcDbEntity
8
0
100
AcDbCircle
10
-146.74919012785406
20
-105.13338516552213
30
0
40
0.99999999999999545
210
0
220
0
230
1
0
CIRCLE
5
135
100
AcDbEntity
8
0
100
AcDbCircle
10
-98.749190127854149
20
-25.133385165522135
30
0
40
1.0000000000000009
210
0
220
0
230
1
0
CIRCLE
5
136
100
AcDbEntity
8
0
100
AcDbCircle
10
-98.749190127854149
20
-105.13338516552213
30
0
40
1.0000000000000142
210
0
220
0
230
1
0
CIRCLE
5
137
100
AcDbEntity
8
0
100
AcDbCircle
10
-98.749190127854149
20
-65.133385165522128
30
0
40
0.5
210
0
220
0
230
1
0
CIRCLE
5
138
100
AcDbEntity
8
0
100
AcDbCircle
10
-146.74919012785406
20
-25.133385165522135
30
0
40
0.99999999999999134
210
0
220
0
230
1
0
LINE
5
139
100
AcDbEntity
8
0
100
AcDbLine
10
24.000000000000004
20
139.99999999999997
30
0
11
23.999999999999986
21
-140
31
0
0
LINE
5
140
100
AcDbEntity
8
0
100
AcDbLine
10
2.5
20
0
30
0
11
20
21
0
31
0
0
LINE
5
141
100
AcDbEntity
8
0
100
AcDbLine
10
2.5
20
0
30
0
11
20
21
0
31
0
0
LINE
5
142
100
AcDbEntity
8
0
100
AcDbLine
10
0
20
2.5
30
0
11
0
21
20
31
0
0
ENDSEC
0
SECTION
2
OBJECTS
0
DICTIONARY
5
C
100
AcDbDictionary
3
ACAD_GROUP
350
D
3
ACAD_MLINESTYLE
350
17
0
DICTIONARY
5
D
100
AcDbDictionary
0
DICTIONARY
5
1A
330
C
100
AcDbDictionary
0
DICTIONARY
5
17
100
AcDbDictionary
0
ENDSEC
0
EOF
